<svg xmlns="http://www.w3.org/2000/svg" xmlns:xlink="http://www.w3.org/1999/xlink" version="1.1" x="0px" y="0px" viewBox="0 0 100 100" enable-background="new 0 0 100 100" xml:space="preserve"><g display="none"><path display="inline" d="M53.962,6c0,0-2.682,0-8.009,0c-3.911,0-9.239,0-16.02,0C13.914,6,14,22.019,14,22.019v32.039   c0,5.866,4,7.431,7,7.851v22.724v2.842V96h19v-8.526v-2.842V62h21.971C86,62,86,38.005,86,38.005C86,5.967,53.962,6,53.962,6z    M24,85V62c0,0,12.981-0.042,13-0.039C37,61.976,37,68,37,68h-7v3h7v6h-7v3h7v5H24z M61.971,59c0,0-22.971,0-24.971,0s-4-2-4-4   s0-32.97,0-32.97s-0.065-3.465,1.668-6.825C36.849,10.977,40.464,9,45.953,9h8.009c0.072,0,7.423-0.036,14.748,3.626   c9.587,4.793,14.448,13.331,14.448,25.452c0,0.053-0.031,5.265-2.704,10.611C76.99,55.618,70.771,59,61.971,59z"></path></g><g display="none"><path display="inline" d="M95.291,45.163c-0.004-0.099-0.008-0.203-0.029-0.303c-0.018-0.104-0.051-0.206-0.08-0.301   c-0.016-0.062-0.023-0.125-0.046-0.186l-11.168-29.92l0.443-0.055c1.542-0.191,2.636-1.597,2.444-3.137   c-0.197-1.544-1.608-2.64-3.145-2.443l-3.602,0.45c-0.006,0-0.011-0.001-0.017-0.001c-0.214,0.001-0.485,0.034-0.69,0.082   L53,12.639v-1.031c0-1.555-1.445-2.814-3.001-2.814c-1.555,0-2.999,1.26-2.999,2.814v1.735l-26.903,3.393   c-0.06,0.007,0.006,0.012-0.053,0.022l-3.891,0.495c-1.545,0.192-2.606,1.6-2.413,3.142c0.172,1.386,1.347,2.402,2.698,2.453   L5.477,52.825c-0.021,0.062-0.025,0.125-0.042,0.187c-0.029,0.097-0.056,0.193-0.073,0.293c-0.021,0.104-0.027,0.203-0.031,0.304   c-0.004,0.061-0.019,0.122-0.019,0.187c0,0.036,0.002,0.064,0.002,0.095c0.002,0.028,0.004,0.057,0.007,0.086   c0.104,8.448,6.99,15.286,15.46,15.286c8.472,0,15.368-6.85,15.461-15.296c0-0.032,0.002-0.062,0.002-0.094   c0-0.026,0.003-0.051,0.003-0.077c0-0.066-0.013-0.127-0.016-0.187c-0.008-0.104-0.01-0.208-0.032-0.312   c-0.016-0.102-0.046-0.193-0.077-0.291c-0.015-0.065-0.025-0.129-0.049-0.192L24.295,21.884L47,19.014v44.155v7.484   c0,0.669-0.326,14.08-22.25,14.08c-1.556,0-2.687,1.078-2.687,2.632C22.063,88.921,23.445,90,25,90h50.624c0.006,0,0.009,0,0.015,0   c0,0,0.005,0,0.01,0c0.002,0,0.004,0,0.006,0c0,0,0.001,0,0.008,0c0,0,0.002,0,0.005,0h0.002h0.004c1.53,0,2.765-0.963,2.765-2.502   c0-1.553-1.253-2.498-2.808-2.498h-0.004C75.402,85,53,84.521,53,70.667v-7.498V18.311l22.68-2.829L64.535,44.34   c-0.028,0.068-0.021,0.136-0.039,0.202c-0.03,0.1-0.057,0.194-0.076,0.299c-0.023,0.108-0.023,0.213-0.027,0.322   c-0.007,0.065-0.018,0.128-0.018,0.193c0,0.019,0.003,0.036,0.003,0.054c0,0.027,0.002,0.053,0.002,0.08   c0.074,8.467,6.979,15.338,15.464,15.338c8.476,0,15.369-6.854,15.461-15.306c0-0.029,0.002-0.058,0.003-0.084   c0-0.028,0.005-0.055,0.005-0.082C95.312,45.291,95.298,45.229,95.291,45.163z M12.148,51l8.542-23.338L29.387,51H12.148z    M71.294,43l8.733-22.555L88.448,43H71.294z"></path></g><g display="none"><polygon display="inline" points="50.062,13.25 5.062,35.75 50.062,58.25 95.062,35.75  "></polygon><path display="inline" d="M27.562,50.75c0,0-7.5,7.5-7.5,15c0,0,22.5,0,30,7.5c0,0,7.5-7.5,30-7.5c0,0,0-7.5-7.5-15L49.785,61.86   L27.562,50.75z"></path><polygon display="inline" points="95.062,38.389 87.562,42.139 87.562,60.89 91.312,53.39 95.062,57.14  "></polygon></g><g display="none"><path display="inline" d="M78.724,11L78.724,11H35v15.67C31,28.2,12.783,37,12.355,63H5v24h58.404h2.235H95V11H78.724z M7,85V65h8   v-0.977c0-28.285,20.483-35.499,21.356-35.792L37,28.012V13h42v50H63v22H7z"></path><rect x="42.664" y="19.984" display="inline" width="29.36" height="7.34"></rect><circle display="inline" cx="36.257" cy="36.965" r="3.67"></circle><circle display="inline" cx="50.936" cy="36.965" r="3.669"></circle><circle display="inline" cx="65.616" cy="36.965" r="3.67"></circle><circle display="inline" cx="30.286" cy="47.042" r="3.67"></circle><circle display="inline" cx="44.965" cy="47.042" r="3.67"></circle><circle display="inline" cx="59.645" cy="47.042" r="3.67"></circle><circle display="inline" cx="24.314" cy="57.118" r="3.67"></circle><circle display="inline" cx="38.994" cy="57.118" r="3.67"></circle><circle display="inline" cx="53.674" cy="57.118" r="3.67"></circle></g><g display="none"><path display="inline" d="M96,33.433c0-13.363-9.188-15.659-17.296-17.686c-9.319-2.33-46.088-2.33-55.41,0   c-5.317,1.329-9.979,2.689-13.182,5.893C7.344,24.41,5.999,28.266,6,33.433c-0.002,11.659,2.365,14.999,2.465,15.2l11.527-2.405   L16,58.812V77h70V58.812l-4.445-12.88l12.693,2.542C94.35,48.272,96,45.091,96,33.433z M84,75H18V59.137L28.667,26H33v6h36v-6   h3.625L84,59.137V75z"></path><path display="inline" d="M50.646,36.275c-9.99,0-18.089,5.981-18.089,13.361c0,7.378,8.1,13.36,18.089,13.36   c9.991,0,18.089-5.982,18.089-13.36C68.735,42.256,60.637,36.275,50.646,36.275z M50.646,57.65c-7.136,0-12.92-3.588-12.92-8.015   c0-4.427,5.785-8.016,12.92-8.016c7.136,0,12.92,3.589,12.92,8.016C63.566,54.062,57.782,57.65,50.646,57.65z"></path></g><g display="none"><path display="inline" d="M81.076,4c0,0-55.385,0-62.308,0C11.845,4,12,10.923,12,10.923s0,69.232,0,76.155   C12,94,18.768,94,18.768,94s4.411,0,10.898,0c11.297,0,28.886,0,40.456,0c5.331,0,9.387,0,10.954,0C88.001,94,88,87.078,88,87.078   s0-69.231,0-76.155S81.076,4,81.076,4z M86,87.065C85.989,87.89,85.7,92,81.076,92H70.104c-0.037-4.449-0.123-15.117-0.123-19.482   c0-5.587-2.263-10.645-5.925-14.305c-3.66-3.66-8.717-5.924-14.302-5.924c-5.585,0-10.642,2.264-14.302,5.924   c-3.661,3.66-5.925,8.718-5.925,14.305c0,4.365,0.085,15.033,0.122,19.482H18.768C18.264,92,14,91.862,14,87.078V10.936   C14,10.112,14.146,6,18.768,6h62.308C81.58,6,86,6.138,86,10.923V87.065z"></path><g display="inline"><path d="M67.568,28.621c0-9.774-7.926-17.697-17.7-17.697l0,0c-9.774,0-17.699,7.923-17.699,17.697l0,0    c0,9.776,7.925,17.7,17.699,17.7l0,0C59.643,46.32,67.568,38.397,67.568,28.621L67.568,28.621z"></path></g></g><g display="none"><path display="inline" d="M82.75,73.501H15.251C10.729,73.501,4,70.504,4,62.25V24.751C4.001,20.229,6.998,13.5,15.251,13.5H82.75   C87.271,13.501,94,16.497,94,24.751V62.25C94,66.772,91.004,73.501,82.75,73.501L82.75,73.501z M82.705,21l-67.454,0.001   c-3.02,0-3.707,2.063-3.75,3.795V62.25c0,3.021,2.064,3.707,3.794,3.751L82.75,66c3.385,0,3.75-2.622,3.75-3.75V24.751   C86.5,21.731,84.438,21.044,82.705,21L82.705,21z"></path><path display="inline" d="M82.75,96h-67.5c-1.517,0-2.884-0.913-3.465-2.314s-0.26-3.015,0.813-4.087l7.501-7.5   C20.802,81.395,21.756,81,22.75,81h52.5c0.994,0,1.947,0.395,2.65,1.099l7.5,7.5c1.074,1.072,1.395,2.686,0.814,4.087   C85.633,95.087,84.268,96,82.75,96L82.75,96z"></path><path display="inline" d="M39.444,56.104v-3.418c2.236-0.928,4.683-3.333,4.683-6.202c0-0.591,0-1.14-0.084-1.688h-4.135v-4.389   h3.375c-0.211-1.055-0.338-2.235-0.338-3.417c0-5.273,3.839-8.775,9.535-8.775c2.278,0,4.008,0.506,4.937,1.013l-1.013,4.852   c-0.844-0.464-2.025-0.76-3.586-0.76c-2.996,0-3.924,1.898-3.924,3.966c0,1.098,0.168,2.067,0.422,3.122h5.779v4.389h-5.231   c0.042,1.012-0.084,2.024-0.38,2.995c-0.379,1.055-1.055,2.109-2.067,2.995v0.085h11.265v5.232H39.444z"></path></g><g display="none"><path display="inline" d="M82.75,73.501H15.251C10.729,73.501,4,70.504,4,62.25V24.751C4.001,20.229,6.998,13.5,15.251,13.5H82.75   C87.271,13.501,94,16.497,94,24.751V62.25C94,66.772,91.004,73.501,82.75,73.501L82.75,73.501z M82.705,21l-67.454,0.001   c-3.02,0-3.707,2.063-3.75,3.795V62.25c0,3.021,2.064,3.707,3.794,3.751L82.75,66c3.385,0,3.75-2.622,3.75-3.75V24.751   C86.5,21.731,84.438,21.044,82.705,21L82.705,21z"></path><path display="inline" d="M82.75,96h-67.5c-1.517,0-2.884-0.913-3.465-2.314s-0.26-3.015,0.813-4.087l7.501-7.5   C20.802,81.395,21.756,81,22.75,81h52.5c0.994,0,1.947,0.395,2.65,1.099l7.5,7.5c1.074,1.072,1.395,2.686,0.814,4.087   C85.633,95.087,84.268,96,82.75,96L82.75,96z"></path></g><g display="none"><path display="inline" d="M87.248,23H12.751c-3.999,0-5.905,2.255-6.801,4.047C5.011,28.925,5,30.912,5,30.99v40.635   C5,77.756,10.07,79,12.751,79h74.497c6.13,0,7.751-4.693,7.752-7.375V30.99C95,24.859,89.929,23,87.248,23z M7.7,27.948   C8.644,26.06,10.344,25,12.751,25h74.494c0.594,0,5.799,0,5.799,6H6.957C6.957,31,6.977,29.395,7.7,27.948z M87.248,77H12.751   C12.515,77,7,77.354,7,71.625V45h86v26.622C93,72.215,92.844,77,87.248,77z"></path></g><g><circle cx="65.688" cy="20.538" r="12.856"></circle><circle cx="34.029" cy="20.538" r="12.858"></circle><circle cx="65.688" cy="78.143" r="12.856"></circle><circle cx="34.029" cy="78.143" r="12.858"></circle><g><path d="M82.142,38.455c5.987,0,10.858,4.87,10.858,10.856c0,5.987-4.871,10.858-10.858,10.858s-10.858-4.871-10.858-10.858    C71.283,43.325,76.154,38.455,82.142,38.455 M82.142,36.455c-7.102,0-12.858,5.753-12.858,12.856    c0,7.099,5.757,12.858,12.858,12.858c7.103,0,12.858-5.76,12.858-12.858C95,42.208,89.244,36.455,82.142,36.455L82.142,36.455z"></path></g><g><path d="M49.998,38.455c5.986,0,10.857,4.87,10.857,10.856c0,5.987-4.871,10.858-10.857,10.858    c-5.985,0-10.855-4.871-10.855-10.858C39.143,43.325,44.013,38.455,49.998,38.455 M49.998,36.455    c-7.098,0-12.855,5.753-12.855,12.856c0,7.099,5.757,12.858,12.855,12.858c7.106,0,12.857-5.76,12.857-12.858    C62.855,42.208,57.104,36.455,49.998,36.455L49.998,36.455z"></path></g><g><path d="M17.855,38.455c5.988,0,10.859,4.87,10.859,10.856c0,5.987-4.872,10.858-10.859,10.858C11.87,60.169,7,55.298,7,49.311    C7,43.325,11.87,38.455,17.855,38.455 M17.855,36.455C10.753,36.455,5,42.208,5,49.311c0,7.099,5.753,12.858,12.855,12.858    c7.102,0,12.859-5.76,12.859-12.858C30.715,42.208,24.957,36.455,17.855,36.455L17.855,36.455z"></path></g></g></svg>